# xmcd CD database file
#
# Track frame offsets:
#	150
#	30857
#	55017
#	89785
#	124265
#	157905
#	198222
#	233410
#
# Disc length: 3393 seconds
#
# Revision: 0
# Processed by: cddbd v1.4PL0 Copyright (c) Steve Scherf et al.
# Submitted via: CDex 1.51
#
DISCID=560d3f08
DTITLE=Steve Grossman - Standards
DYEAR=1985
DGENRE=Jazz
TTITLE0=Half Nelson
TTITLE1=When I Fall In Love
TTITLE2=Autumn Leaves
TTITLE3=Just In Time
TTITLE4=Mr. Sandman
TTITLE5=Softly as in a Morning Sunrise
TTITLE6=Time Was
TTITLE7=Easy Living
EXTD=YEAR: 1985
EXTT0=
EXTT1=
EXTT2=
EXTT3=
EXTT4=
EXTT5=
EXTT6=
EXTT7=
PLAYORDER=
